<svg xmlns="http://www.w3.org/2000/svg" viewBox="0 0 220 48" width="220" height="48" role="img" aria-label="BuySecureVPN">
  <title>BuySecureVPN</title>
  <defs>
    <linearGradient id="shieldFill" x1="0" y1="0" x2="1" y2="1">
      <stop offset="0%" stop-color="#60a5fa"/>
      <stop offset="55%" stop-color="#3b82f6"/>
      <stop offset="100%" stop-color="#1d4ed8"/>
    </linearGradient>
    <linearGradient id="shieldEdge" x1="0" y1="0" x2="0" y2="1">
      <stop offset="0%" stop-color="#93c5fd" stop-opacity="0.9"/>
      <stop offset="100%" stop-color="#1e3a8a" stop-opacity="0.6"/>
    </linearGradient>
    <filter id="shadow" x="-30%" y="-20%" width="160%" height="140%">
      <feDropShadow dx="0" dy="1.5" stdDeviation="1.8" flood-color="#1e3a8a" flood-opacity="0.3"/>
    </filter>
  </defs>

  <g transform="translate(2,2)">
    <path d="M 10 3 L 30 3 L 37 10 L 37 23 Q 37 25 35.8 26.5 L 21.2 41.8 Q 20 43 18.8 41.8 L 4.2 26.5 Q 3 25 3 23 L 3 10 Z"
          fill="url(#shieldFill)" filter="url(#shadow)"/>
    <path d="M 10 3 L 30 3 L 37 10 L 37 23 Q 37 25 35.8 26.5 L 21.2 41.8 Q 20 43 18.8 41.8 L 4.2 26.5 Q 3 25 3 23 L 3 10 Z"
          fill="none" stroke="url(#shieldEdge)" stroke-width="1"/>
    <path d="M 12 7 L 28 7 L 33 12 L 33 22 L 20 37 L 7 22 L 7 12 Z"
          fill="none" stroke="rgba(255,255,255,0.22)" stroke-width="1" stroke-linejoin="round"/>
    <path d="M 12 22 L 18 28 L 29 15"
          stroke="white" stroke-width="3.5" stroke-linecap="round" stroke-linejoin="round" fill="none"/>
    <circle cx="14" cy="9" r="1.2" fill="rgba(255,255,255,0.5)"/>
  </g>

  <text x="50" y="32" font-family="system-ui,-apple-system,'Segoe UI',sans-serif" font-size="22" letter-spacing="-0.5">
    <tspan font-weight="500" fill="#475569">Buy</tspan><tspan font-weight="800" fill="#0f172a">Secure</tspan><tspan font-weight="900" fill="#2563eb" dx="1">VPN</tspan>
  </text>
  <circle cx="210" cy="27" r="2" fill="#2563eb" opacity="0.7"/>
</svg>
